<?xml version="1.0" encoding="UTF-8" standalone="no"?>
<svg
   enable-background="new 0 0 64 64"
   viewBox="0 0 64 64"
   version="1.1"
   id="svg19"
   sodipodi:docname="terrace.svg"
   inkscape:version="1.4.2 (f4327f4, 2025-05-13)"
   xmlns:inkscape="http://www.inkscape.org/namespaces/inkscape"
   xmlns:sodipodi="http://sodipodi.sourceforge.net/DTD/sodipodi-0.dtd"
   xmlns:xlink="http://www.w3.org/1999/xlink"
   xmlns="http://www.w3.org/2000/svg"
   xmlns:svg="http://www.w3.org/2000/svg">
  <sodipodi:namedview
     id="namedview19"
     pagecolor="#ffffff"
     bordercolor="#000000"
     borderopacity="0.25"
     inkscape:showpageshadow="2"
     inkscape:pageopacity="0.0"
     inkscape:pagecheckerboard="0"
     inkscape:deskcolor="#d1d1d1"
     inkscape:zoom="13.296875"
     inkscape:cx="32.037603"
     inkscape:cy="32"
     inkscape:window-width="1920"
     inkscape:window-height="1111"
     inkscape:window-x="-9"
     inkscape:window-y="-9"
     inkscape:window-maximized="1"
     inkscape:current-layer="svg19" />
  <defs
     id="defs3">
    <linearGradient
       id="a"
       x1="31"
       x2="33"
       gradientUnits="userSpaceOnUse">
      <stop
         stop-color="#82828c"
         offset="0"
         id="stop1" />
      <stop
         stop-color="#ccd3e7"
         offset=".5"
         id="stop2" />
      <stop
         stop-color="#82828c"
         offset="1"
         id="stop3" />
    </linearGradient>
    <linearGradient
       id="b"
       x1="24"
       x2="40"
       gradientUnits="userSpaceOnUse"
       xlink:href="#a" />
  </defs>
  <path
     d="m20.92 50.47v-1h-13.55v1.51h11.44c.68-.23 1.41-.39 2.11-.51"
     fill="#f9aa43"
     id="path3" />
  <path
     d="m17.5 40.5h29v2h-29z"
     fill="#fff"
     id="path4" />
  <path
     d="m46 41v1h-28v-1h28m1-1h-30v3h30v-3z"
     fill="#ccc"
     id="path5" />
  <g
     fill="url(#a)"
     id="g7">
    <path
       d="m31 43h2v16h-2z"
       id="path6" />
    <path
       d="m33 40h-2v-35.16c0-0.55 0.45-1 1-1s1 0.45 1 1v35.16"
       id="path7" />
  </g>
  <path
     d="m24 59h16v1h-16z"
     fill="url(#b)"
     id="path8" />
  <path
     d="m1 19.42c-.24 0-.44-.17-.49-.4s.08-.47.3-.56l31-12.92c.06-.03.12-.04.19-.04s.13.01.19.04l31 13c.22.09.34.33.3.56s-.25.4-.49.4l-62-.08"
     fill="#ffd45a"
     id="path9" />
  <g
     fill="#f9aa43"
     id="g11">
    <path
       d="m32 6l31 13-62-.08 31-12.92m0-1c-.13 0-.26.03-.38.08l-31 12.92c-.44.18-.69.65-.6 1.12.09.47.5.8.98.8l62 .08c0 0 0 0 0 0 .48 0 .89-.34.98-.8.09-.47-.15-.94-.59-1.12l-31-13c-.13-.05-.26-.08-.39-.08z"
       id="path10" />
    <path
       d="m2.69 31.5s0.97 0.06 5.87 18.92v1.49l-4.14-7.73c0-0.01-2.1-7.35-1.73-12.68"
       id="path11" />
  </g>
  <g
     fill="none"
     stroke="#663014"
     stroke-linecap="round"
     stroke-linejoin="round"
     stroke-miterlimit="10"
     id="g13"
     style="stroke:#a04c22;stroke-opacity:1">
    <path
       d="m3.66 47.03s12.85-6.4 18.12 3.29c-3.58 0.28-6.07 1.79-10.16 4.94s-10.12 4.24-10.12 4.24"
       id="path12"
       style="stroke:#a04c22;stroke-opacity:1" />
    <path
       d="m2.39 31.88s0.42 25.93 19.39 27.62"
       id="path13"
       style="stroke:#a04c22;stroke-opacity:1" />
  </g>
  <g
     fill="#f9aa43"
     id="g15">
    <path
       d="m43.08 50.47v-1h13.55v1.51h-11.44c-.68-.23-1.41-.39-2.11-.51"
       id="path14" />
    <path
       d="m61.31 31.5c0 0-.97.06-5.87 18.92v1.49l4.14-7.73c0-.01 2.1-7.35 1.73-12.68"
       id="path15" />
  </g>
  <g
     fill="none"
     stroke="#663014"
     stroke-linecap="round"
     stroke-linejoin="round"
     stroke-miterlimit="10"
     id="g17"
     style="stroke:#a04c22;stroke-opacity:1">
    <path
       d="m60.34 47.03s-12.85-6.4-18.12 3.29c3.58 0.28 6.07 1.79 10.16 4.94s10.12 4.24 10.12 4.24"
       id="path16"
       style="stroke:#a04c22;stroke-opacity:1" />
    <path
       d="m61.61 31.88s-0.42 25.93-19.39 27.62"
       id="path17"
       style="stroke:#a04c22;stroke-opacity:1" />
  </g>
  <g
     fill="#f9aa43"
     id="g19">
    <path
       d="m32 5 6 14h12z"
       opacity=".5"
       id="path18" />
    <path
       d="m14 19h12l6-14z"
       opacity=".5"
       id="path19" />
  </g>
</svg>
