<?xml version="1.0" encoding="UTF-8" standalone="no"?>
<svg
   version="1.1"
   x="0px"
   y="0px"
   viewBox="0 0 41.060105 34.657002"
   xml:space="preserve"
   id="svg2"
   sodipodi:docname="cm-wifi-check.svg"
   width="41.060104"
   height="34.657001"
   inkscape:version="1.4.2 (f4327f4, 2025-05-13)"
   xmlns:inkscape="http://www.inkscape.org/namespaces/inkscape"
   xmlns:sodipodi="http://sodipodi.sourceforge.net/DTD/sodipodi-0.dtd"
   xmlns="http://www.w3.org/2000/svg"
   xmlns:svg="http://www.w3.org/2000/svg"
   xmlns:i="http://ns.adobe.com/AdobeIllustrator/10.0/"><defs
     id="defs2" /><sodipodi:namedview
     id="namedview2"
     pagecolor="#000000"
     bordercolor="#000000"
     borderopacity="0.25"
     inkscape:showpageshadow="2"
     inkscape:pageopacity="0.0"
     inkscape:pagecheckerboard="0"
     inkscape:deskcolor="#d1d1d1"
     inkscape:zoom="6.6468037"
     inkscape:cx="9.2525675"
     inkscape:cy="47.315975"
     inkscape:window-width="1920"
     inkscape:window-height="1111"
     inkscape:window-x="-9"
     inkscape:window-y="-9"
     inkscape:window-maximized="1"
     inkscape:current-layer="svg2" /><switch
     id="switch3"
     transform="matrix(0.22536371,0,0,0.22536371,-0.56340928,13.914957)"
     style="fill:#808080;fill-opacity:1"
     inkscape:label="Wi-Fi"><foreignObject
       requiredExtensions="http://ns.adobe.com/AdobeIllustrator/10.0/"
       x="0"
       y="0"
       width="1"
       height="1" /><g
       i:extraneous="self"
       id="g3"
       style="fill:#808080;fill-opacity:1"><g
         id="g2"
         style="fill:#808080;fill-opacity:1"><path
           d="M 95.4,31.2 C 83.3,19.1 67.2,12.4 50,12.4 c 0,0 0,0 0,0 -17.2,0 -33.3,6.7 -45.4,18.8 -2.8,2.8 -2.8,7.2 0,10 1.4,1.4 3.2,2.1 5,2.1 1.8,0 3.6,-0.7 5,-2.1 9.4,-9.5 22,-14.7 35.4,-14.7 0,0 0,0 0,0 13.4,0 26,5.2 35.4,14.7 2.8,2.8 7.2,2.8 10,0 2.8,-2.8 2.8,-7.3 0,-10 z"
           id="path1-9"
           style="fill:#808080;fill-opacity:1" /><path
           d="m 23.4,50.1 c -2.8,2.8 -2.8,7.2 0,10 1.4,1.4 3.2,2.1 5,2.1 1.8,0 3.6,-0.7 5,-2.1 9.2,-9.2 24.1,-9.2 33.2,-0.1 2.7,2.8 7.2,2.8 10,0 2.8,-2.8 2.8,-7.2 0,-10 C 61.9,35.4 38.1,35.4 23.4,50.1 Z"
           id="path2"
           style="fill:#808080;fill-opacity:1" /><circle
           cx="50.099998"
           cy="76.599998"
           r="11"
           id="circle2"
           style="fill:#808080;fill-opacity:1" /></g></g></switch><g
     id="g6"
     transform="matrix(0.3544322,0,0,0.3544322,13.335212,-0.90013961)"
     style="fill:#808080;fill-opacity:1;stroke:none;stroke-width:2.90039;stroke-dasharray:none;stroke-opacity:1;paint-order:stroke fill markers"><path
       d="M 77.8,25.7 C 75.8,14.3 66.4,5 55.1,3 46.8,1.5 38.4,3.7 31.9,9.1 25.5,14.5 21.8,22.4 21.8,30.7 c 0,4.4 3.6,8 8,8 4.4,0 8,-3.6 8,-8 0,-3.6 1.6,-7.1 4.4,-9.4 2.8,-2.3 6.4,-3.3 10.2,-2.7 4.8,0.9 8.9,5 9.8,9.8 1.2,7 -3.2,12.3 -8.3,14 -7,2.3 -11.8,8.9 -11.8,16.5 v 6.9 c 0,4.4 3.6,8 8,8 4.4,0 8,-3.6 8,-8 v -6.9 c 0,-0.7 0.4,-1.2 0.7,-1.3 13.4,-4.4 21.4,-17.8 19,-31.9 z"
       id="path5"
       style="fill:#808080;fill-opacity:1;stroke:none;stroke-width:2.90039;stroke-dasharray:none;stroke-opacity:1;paint-order:stroke fill markers" /><path
       d="m 50,80.3 c -4.7,0 -8.6,3.9 -8.6,8.6 0,4.7 3.9,8.6 8.6,8.6 4.7,0 8.6,-3.9 8.6,-8.6 0,-4.7 -3.8,-8.6 -8.6,-8.6 z"
       id="path6"
       style="fill:#808080;fill-opacity:1;stroke:none;stroke-width:2.90039;stroke-dasharray:none;stroke-opacity:1;paint-order:stroke fill markers" /></g></svg>
