<?xml version="1.0" encoding="UTF-8" standalone="no"?>
<svg
   version="1.1"
   x="0px"
   y="0px"
   viewBox="0 0 34.657002 34.657002"
   xml:space="preserve"
   id="svg2"
   sodipodi:docname="cm-wifi-check.svg"
   width="34.657001"
   height="34.657001"
   inkscape:version="1.4.2 (f4327f4, 2025-05-13)"
   xmlns:inkscape="http://www.inkscape.org/namespaces/inkscape"
   xmlns:sodipodi="http://sodipodi.sourceforge.net/DTD/sodipodi-0.dtd"
   xmlns="http://www.w3.org/2000/svg"
   xmlns:svg="http://www.w3.org/2000/svg"><defs
     id="defs2" /><sodipodi:namedview
     id="namedview2"
     pagecolor="#000000"
     bordercolor="#000000"
     borderopacity="0.25"
     inkscape:showpageshadow="2"
     inkscape:pageopacity="0.0"
     inkscape:pagecheckerboard="0"
     inkscape:deskcolor="#d1d1d1"
     inkscape:zoom="6.6468037"
     inkscape:cx="-7.0710679"
     inkscape:cy="47.315975"
     inkscape:window-width="1920"
     inkscape:window-height="1111"
     inkscape:window-x="-9"
     inkscape:window-y="-9"
     inkscape:window-maximized="1"
     inkscape:current-layer="svg2" /><g
     id="g2-9"
     style="fill:#808080;fill-opacity:1"
     transform="matrix(0.1664108,0,0,0.1664108,5.300068,5.2137146)"
     inkscape:label="searching for wi-fi"><path
       d="M 94.7,82.9 70.3,60.9 C 74.5,54.9 77,47.6 77,39.7 77,19.2 60.3,2.5 39.7,2.5 19.1,2.5 2.5,19.2 2.5,39.7 2.5,60.3 19.2,77 39.7,77 c 7.9,0 15.2,-2.5 21.2,-6.7 l 22,24.4 c 3.2,3.6 8.7,3.7 12.1,0.3 3.4,-3.3 3.3,-8.9 -0.3,-12.1 z M 39.7,67.5 C 24.4,67.5 12,55 12,39.7 12,24.4 24.4,12 39.7,12 55,12 67.4,24.4 67.4,39.7 67.5,55 55,67.5 39.7,67.5 Z"
       id="path1-4"
       style="fill:#808080;fill-opacity:1"
       inkscape:label="loupe"
       transform="matrix(2.1927563,0,0,2.1927563,-37.331194,-36.812277)" /><g
       id="g4"
       inkscape:label="wi-fi"
       style="fill:#808080;fill-opacity:1"><path
         d="M 95.4,31.2 C 83.3,19.1 67.2,12.4 50,12.4 c 0,0 0,0 0,0 -17.2,0 -33.3,6.7 -45.4,18.8 -2.8,2.8 -2.8,7.2 0,10 1.4,1.4 3.2,2.1 5,2.1 1.8,0 3.6,-0.7 5,-2.1 9.4,-9.5 22,-14.7 35.4,-14.7 0,0 0,0 0,0 13.4,0 26,5.2 35.4,14.7 2.8,2.8 7.2,2.8 10,0 2.8,-2.8 2.8,-7.3 0,-10 z"
         id="path1-9-8"
         style="fill:#808080;fill-opacity:1"
         inkscape:label="wave2" /><path
         d="m 23.4,50.1 c -2.8,2.8 -2.8,7.2 0,10 1.4,1.4 3.2,2.1 5,2.1 1.8,0 3.6,-0.7 5,-2.1 9.2,-9.2 24.1,-9.2 33.2,-0.1 2.7,2.8 7.2,2.8 10,0 2.8,-2.8 2.8,-7.2 0,-10 C 61.9,35.4 38.1,35.4 23.4,50.1 Z"
         id="path2-8"
         style="fill:#808080;fill-opacity:1"
         inkscape:label="wave1" /><circle
         cx="50.099998"
         cy="76.599998"
         r="11"
         id="circle2-2"
         style="fill:#808080;fill-opacity:1"
         inkscape:label="circle" /></g></g></svg>
